<mxfile host="app.diagrams.net" modified="2024-04-09T06:44:33.896Z" agent="Mozilla/5.0 (Windows NT 10.0; Win64; x64) AppleWebKit/537.36 (KHTML, like Gecko) Chrome/123.0.0.0 Safari/537.36 Edg/123.0.0.0" etag="PTeRArciXiAbPUlWeMuy" version="24.0.5" type="device">
  <diagram name="페이지-1" id="QVhVeKP8gLEAL9bTiDsg">
    <mxGraphModel dx="1869" dy="569" grid="1" gridSize="10" guides="1" tooltips="1" connect="1" arrows="1" fold="1" page="1" pageScale="1" pageWidth="827" pageHeight="1169" math="0" shadow="0">
      <root>
        <mxCell id="0" />
        <mxCell id="1" parent="0" />
        <mxCell id="C7-rEZ0LEDKCglz3swsz-1" value="开始" style="rounded=0;whiteSpace=wrap;html=1;fillColor=#dae8fc;strokeColor=#6c8ebf;" vertex="1" parent="1">
          <mxGeometry x="120" y="90" width="100" height="30" as="geometry" />
        </mxCell>
        <mxCell id="C7-rEZ0LEDKCglz3swsz-2" value="" style="endArrow=classic;html=1;rounded=0;" edge="1" parent="1">
          <mxGeometry width="50" height="50" relative="1" as="geometry">
            <mxPoint x="169.5" y="120" as="sourcePoint" />
            <mxPoint x="169.5" y="180" as="targetPoint" />
          </mxGeometry>
        </mxCell>
        <mxCell id="C7-rEZ0LEDKCglz3swsz-3" value="DispatcherServlet&lt;br&gt;doDispatch() throw Exception" style="rounded=1;whiteSpace=wrap;html=1;fillColor=#dae8fc;strokeColor=#6c8ebf;" vertex="1" parent="1">
          <mxGeometry x="72.5" y="180" width="195" height="60" as="geometry" />
        </mxCell>
        <mxCell id="C7-rEZ0LEDKCglz3swsz-4" value="是否存在错误？" style="rhombus;whiteSpace=wrap;html=1;fillColor=#ffe6cc;strokeColor=#d79b00;" vertex="1" parent="1">
          <mxGeometry x="95" y="310" width="150" height="80" as="geometry" />
        </mxCell>
        <mxCell id="C7-rEZ0LEDKCglz3swsz-5" value="" style="endArrow=classic;html=1;rounded=0;" edge="1" parent="1">
          <mxGeometry width="50" height="50" relative="1" as="geometry">
            <mxPoint x="169.5" y="240" as="sourcePoint" />
            <mxPoint x="169.5" y="310" as="targetPoint" />
          </mxGeometry>
        </mxCell>
        <mxCell id="C7-rEZ0LEDKCglz3swsz-7" value="" style="endArrow=classic;html=1;rounded=0;" edge="1" parent="1">
          <mxGeometry relative="1" as="geometry">
            <mxPoint x="95" y="350" as="sourcePoint" />
            <mxPoint x="30" y="460" as="targetPoint" />
            <Array as="points">
              <mxPoint x="30" y="350" />
            </Array>
          </mxGeometry>
        </mxCell>
        <mxCell id="C7-rEZ0LEDKCglz3swsz-8" value="否" style="edgeLabel;resizable=0;html=1;;align=center;verticalAlign=middle;" connectable="0" vertex="1" parent="C7-rEZ0LEDKCglz3swsz-7">
          <mxGeometry relative="1" as="geometry" />
        </mxCell>
        <mxCell id="C7-rEZ0LEDKCglz3swsz-11" value="Controller 正常处理请求" style="rounded=1;whiteSpace=wrap;html=1;fillColor=#dae8fc;strokeColor=#6c8ebf;" vertex="1" parent="1">
          <mxGeometry x="-45" y="460" width="165" height="60" as="geometry" />
        </mxCell>
        <mxCell id="C7-rEZ0LEDKCglz3swsz-13" value="" style="endArrow=classic;html=1;rounded=0;" edge="1" parent="1">
          <mxGeometry relative="1" as="geometry">
            <mxPoint x="245" y="349.5" as="sourcePoint" />
            <mxPoint x="345" y="349.5" as="targetPoint" />
          </mxGeometry>
        </mxCell>
        <mxCell id="C7-rEZ0LEDKCglz3swsz-14" value="是" style="edgeLabel;resizable=0;html=1;;align=center;verticalAlign=middle;" connectable="0" vertex="1" parent="C7-rEZ0LEDKCglz3swsz-13">
          <mxGeometry relative="1" as="geometry" />
        </mxCell>
        <mxCell id="C7-rEZ0LEDKCglz3swsz-15" value="Controller Exception Hanlder 是否能处理错误" style="rhombus;whiteSpace=wrap;html=1;fillColor=#ffe6cc;strokeColor=#d79b00;" vertex="1" parent="1">
          <mxGeometry x="344" y="290" width="166" height="120" as="geometry" />
        </mxCell>
        <mxCell id="C7-rEZ0LEDKCglz3swsz-16" value="" style="endArrow=classic;html=1;rounded=0;entryX=0.079;entryY=-0.027;entryDx=0;entryDy=0;entryPerimeter=0;" edge="1" parent="1">
          <mxGeometry relative="1" as="geometry">
            <mxPoint x="510" y="350" as="sourcePoint" />
            <mxPoint x="591.06" y="498.8800000000001" as="targetPoint" />
            <Array as="points">
              <mxPoint x="590" y="350.5" />
            </Array>
          </mxGeometry>
        </mxCell>
        <mxCell id="C7-rEZ0LEDKCglz3swsz-17" value="是" style="edgeLabel;resizable=0;html=1;;align=center;verticalAlign=middle;" connectable="0" vertex="1" parent="C7-rEZ0LEDKCglz3swsz-16">
          <mxGeometry relative="1" as="geometry" />
        </mxCell>
        <mxCell id="C7-rEZ0LEDKCglz3swsz-18" value="&amp;nbsp;HTTP ERROR" style="rounded=1;whiteSpace=wrap;html=1;fillColor=#dae8fc;strokeColor=#6c8ebf;" vertex="1" parent="1">
          <mxGeometry x="530" y="500" width="140" height="60" as="geometry" />
        </mxCell>
        <mxCell id="C7-rEZ0LEDKCglz3swsz-19" value="" style="endArrow=classic;html=1;rounded=0;" edge="1" parent="1">
          <mxGeometry relative="1" as="geometry">
            <mxPoint x="426.5" y="410" as="sourcePoint" />
            <mxPoint x="270" y="480" as="targetPoint" />
            <Array as="points">
              <mxPoint x="270" y="410" />
            </Array>
          </mxGeometry>
        </mxCell>
        <mxCell id="C7-rEZ0LEDKCglz3swsz-20" value="否" style="edgeLabel;resizable=0;html=1;;align=center;verticalAlign=middle;" connectable="0" vertex="1" parent="C7-rEZ0LEDKCglz3swsz-19">
          <mxGeometry relative="1" as="geometry" />
        </mxCell>
        <mxCell id="C7-rEZ0LEDKCglz3swsz-21" value="ControllerAdvice 处理错误" style="rounded=1;whiteSpace=wrap;html=1;fillColor=#dae8fc;strokeColor=#6c8ebf;" vertex="1" parent="1">
          <mxGeometry x="210" y="480" width="140" height="70" as="geometry" />
        </mxCell>
      </root>
    </mxGraphModel>
  </diagram>
</mxfile>
